<svg id="Layer_5" data-name="Layer 5" xmlns="http://www.w3.org/2000/svg" viewBox="0 0 3124.52 2568.3"><defs><style>.cls-1{fill:#3c60d3;stroke:#000;stroke-miterlimit:10;stroke-width:9px;}.cls-2,.cls-4{fill:#003d7f;}.cls-3,.cls-5{fill:#fcbc05;}.cls-4{font-size:655.03px;font-family:Verdana-Bold, Verdana;font-weight:700;letter-spacing:-0.01em;}.cls-5{letter-spacing:-0.01em;}</style></defs><title>logo1</title><path class="cls-1" d="M7200.5,6283.14v0Z" transform="translate(-4833.28 -6053.84)"/><path class="cls-2" d="M5313.8,7850.08s376-188-88-1028c-116-228,172-272,172-272s158-20,273,298c0,0,232.44,505.64,725.25,484.64v517.36Z" transform="translate(-4833.28 -6053.84)"/><path class="cls-3" d="M7478.3,7850.09s-376-188,88-1028c116-228-172-272-172-272s-158-20-273,298c0,0-232.43,505.63-725.25,484.63v517.37Z" transform="translate(-4833.28 -6053.84)"/><circle class="cls-2" cx="1562.77" cy="560" r="560"/><text class="cls-4" transform="translate(0 2369.68)">GW<tspan class="cls-5" x="1257.29" y="0">HELP</tspan></text></svg>